<mxfile host="app.diagrams.net" modified="2022-09-09T00:26:40.771Z" agent="5.0 (Windows NT 10.0; Win64; x64) AppleWebKit/537.36 (KHTML, like Gecko) Chrome/104.0.0.0 Safari/537.36" etag="6kryYdZ3nnLRV3mAjUEt" version="20.2.8" type="github">
  <diagram id="KC21K3655msZWkcL_p2v" name="Auditing of Payments of Employee Benefits - PHIC Pool Sharing (Through payroll)">
    <mxGraphModel dx="1422" dy="754" grid="1" gridSize="10" guides="1" tooltips="1" connect="1" arrows="1" fold="1" page="1" pageScale="1" pageWidth="850" pageHeight="1100" math="0" shadow="0">
      <root>
        <mxCell id="0" />
        <mxCell id="1" parent="0" />
        <mxCell id="0hBIkFb9s6ztZNN5EmTh-2" value="&lt;h1&gt;Auditing of Payments of Employee Benefits - PHIC Pool Sharing (Through payroll)&lt;br&gt;&lt;/h1&gt;" style="text;html=1;strokeColor=none;fillColor=none;spacing=5;spacingTop=-20;whiteSpace=wrap;overflow=hidden;rounded=0;align=center;" vertex="1" parent="1">
          <mxGeometry x="45" y="40" width="760" height="70" as="geometry" />
        </mxCell>
        <mxCell id="0hBIkFb9s6ztZNN5EmTh-3" value="START" style="strokeWidth=2;html=1;shape=mxgraph.flowchart.start_1;whiteSpace=wrap;fontSize=8;" vertex="1" parent="1">
          <mxGeometry x="385" y="120" width="80" height="40" as="geometry" />
        </mxCell>
      </root>
    </mxGraphModel>
  </diagram>
</mxfile>
